<?xml version="1.0" standalone="no"?>
<svg xmlns="http://www.w3.org/2000/svg" viewBox="0 0 93.36 36" width="93.36" height="36"><g fill="#1c81d4" color="#1c81d4" transform="translate(0 3.9999999999999982) scale(0.2800001)"><svg width="100.0" height="100.0" x="0.0" y="0.0" viewBox="0 0 100 100"><polygon points="91.822,10.995 91.822,5.312 52.71,29.765 "></polygon><polygon points="52.71,31.876 52.71,98.688 100,76.418 100,9.605 "></polygon><polygon points="8.178,10.995 8.178,5.312 47.29,29.765 "></polygon><polygon points="47.29,31.876 47.29,98.688 0,76.418 0,9.605 "></polygon></svg></g><path fill="#2b2d38" fill-rule="nonzero" d="M0 20.74L0 0.12L6.34 0.12Q7.85 0.12 8.68 0.80Q9.50 1.49 9.79 2.72Q10.08 3.96 10.08 5.88L10.08 5.88Q10.08 7.63 9.62 8.62Q9.17 9.60 8.04 9.98L8.04 9.98Q8.98 10.18 9.40 10.92Q9.82 11.66 9.82 12.94L9.82 12.94L9.77 20.74L5.74 20.74L5.74 12.67Q5.74 11.81 5.40 11.57Q5.06 11.33 4.18 11.33L4.18 11.33L4.18 20.74L0 20.74ZM4.20 7.75L5.18 7.75Q6.05 7.75 6.05 5.88L6.05 5.88Q6.05 5.06 5.98 4.66Q5.90 4.25 5.71 4.09Q5.52 3.94 5.16 3.94L5.16 3.94L4.20 3.94L4.20 7.75ZM16.30 20.93Q13.58 20.93 12.41 19.44Q11.23 17.95 11.23 15L11.23 15L11.23 7.94Q11.23 5.52 12.62 4.25Q14.02 2.98 16.51 2.98L16.51 2.98Q21.58 2.98 21.58 7.94L21.58 7.94L21.58 9.22Q21.58 11.14 21.53 12.34L21.53 12.34L15.43 12.34L15.43 15.74Q15.43 16.66 15.62 17.17Q15.82 17.69 16.44 17.69L16.44 17.69Q16.92 17.69 17.12 17.40Q17.33 17.11 17.36 16.74Q17.40 16.37 17.40 15.65L17.40 15.65L17.40 13.94L21.58 13.94L21.58 14.95Q21.58 18.02 20.39 19.48Q19.20 20.93 16.30 20.93L16.30 20.93ZM15.41 10.25L17.40 10.25L17.40 7.99Q17.40 6.10 16.46 6.10L16.46 6.10Q15.41 6.10 15.41 7.99L15.41 7.99L15.41 10.25ZM26.54 20.93Q25.01 20.93 24.23 20.20Q23.45 19.46 23.20 18.25Q22.94 17.04 22.94 15.14L22.94 15.14L22.99 7.22Q22.99 5.35 23.94 4.16Q24.89 2.98 26.62 2.98L26.62 2.98Q28.32 2.98 29.16 4.10L29.16 4.10L29.16 0L33.36 0L33.36 20.74L29.16 20.74L29.16 18.86Q28.80 19.90 28.19 20.41Q27.58 20.93 26.54 20.93L26.54 20.93ZM28.15 17.64Q28.78 17.64 28.97 17.03Q29.16 16.42 29.16 15.38L29.16 15.38L29.16 14.64L29.16 8.04Q29.16 7.27 28.94 6.74Q28.73 6.22 28.18 6.22L28.18 6.22Q27.55 6.22 27.35 6.71Q27.14 7.20 27.14 8.04L27.14 8.04L27.14 15.43Q27.14 17.64 28.15 17.64L28.15 17.64ZM38.50 20.93Q36.96 20.93 36.18 20.20Q35.40 19.46 35.15 18.25Q34.90 17.04 34.90 15.14L34.90 15.14L34.94 7.22Q34.94 5.35 35.89 4.16Q36.84 2.98 38.57 2.98L38.57 2.98Q40.27 2.98 41.11 4.10L41.11 4.10L41.11 0L45.31 0L45.31 20.74L41.11 20.74L41.11 18.86Q40.75 19.90 40.14 20.41Q39.53 20.93 38.50 20.93L38.50 20.93ZM40.10 17.64Q40.73 17.64 40.92 17.03Q41.11 16.42 41.11 15.38L41.11 15.38L41.11 14.64L41.11 8.04Q41.11 7.27 40.90 6.74Q40.68 6.22 40.13 6.22L40.13 6.22Q39.50 6.22 39.30 6.71Q39.10 7.20 39.10 8.04L39.10 8.04L39.10 15.43Q39.10 17.64 40.10 17.64L40.10 17.64ZM52.10 20.93Q46.85 20.93 46.85 15.48L46.85 15.48L46.85 8.42Q46.85 5.93 48.25 4.45Q49.66 2.98 52.10 2.98L52.10 2.98Q54.55 2.98 55.96 4.45Q57.36 5.93 57.36 8.42L57.36 8.42L57.36 15.48Q57.36 20.93 52.10 20.93L52.10 20.93ZM52.10 17.69Q52.61 17.69 52.85 17.33Q53.09 16.97 53.09 16.34L53.09 16.34L53.09 7.75Q53.09 6.22 52.10 6.22L52.10 6.22Q51.12 6.22 51.12 7.75L51.12 7.75L51.12 16.34Q51.12 16.97 51.36 17.33Q51.60 17.69 52.10 17.69L52.10 17.69Z" transform="translate(36, 7.632)"></path></svg>